# xmcd
#
# Track frame offsets: 
#        150
#        29795
#        53602
#        74887
#        93887
#        117522
#        145020
#        169925
#
# Disc length: 2504 seconds
#
# Revision: 4
# Processed by: cddbd v1.5.2PL0 Copyright (c) Steve Scherf et al.
# Submitted via: ExactAudioCopyFreeDBPlugin 1.0
#
DISCID=7509c608
DTITLE=Terri Wells - Just Like Dreamin'
DYEAR=1984
DGENRE=Funk
TTITLE0=I'm Giving All My Love
TTITLE1=Just Like Dreaming
TTITLE2=Falling Leaves
TTITLE3=Can't Stop
TTITLE4=I Already Know
TTITLE5=I'll Be Around
TTITLE6=Who's That Stranger
TTITLE7=You Make It Heaven
EXTD=
EXTT0=
EXTT1=
EXTT2=
EXTT3=
EXTT4=
EXTT5=
EXTT6=
EXTT7=
PLAYORDER=
